<?xml version="1.0" encoding="utf-8"?>
<!-- Generator: Adobe Illustrator 21.0.2, SVG Export Plug-In . SVG Version: 6.00 Build 0)  -->
<svg version="1.1"
	 id="svg2" inkscape:version="0.48.4 r9939" sodipodi:docname="bg_form_message.svg" xmlns:cc="http://creativecommons.org/ns#" xmlns:dc="http://purl.org/dc/elements/1.1/" xmlns:inkscape="http://www.inkscape.org/namespaces/inkscape" xmlns:rdf="http://www.w3.org/1999/02/22-rdf-syntax-ns#" xmlns:sodipodi="http://sodipodi.sourceforge.net/DTD/sodipodi-0.dtd" xmlns:svg="http://www.w3.org/2000/svg"
	 xmlns="http://www.w3.org/2000/svg" xmlns:xlink="http://www.w3.org/1999/xlink" x="0px" y="0px" viewBox="0 0 200 200"
	 style="enable-background:new 0 0 200 200;" xml:space="preserve">
<style type="text/css">
	.st0{fill:#0CB70C;}
	.st1{fill:#FFFFFF;}
</style>
<sodipodi:namedview  bordercolor="#666666" borderlayer="true" borderopacity="1" fit-margin-bottom="0" fit-margin-left="0" fit-margin-right="0" fit-margin-top="0" gridtolerance="10" guidetolerance="10" id="namedview16" inkscape:current-layer="svg2" inkscape:cx="95.80758" inkscape:cy="-99.365169" inkscape:guide-bbox="true" inkscape:pageopacity="0" inkscape:pageshadow="2" inkscape:showpageshadow="false" inkscape:window-height="1000" inkscape:window-maximized="1" inkscape:window-width="1215" inkscape:window-x="65" inkscape:window-y="24" inkscape:zoom="0.472" objecttolerance="10" pagecolor="#ffffff" showgrid="false" showguides="true">
	<sodipodi:guide  id="guide3767" orientation="1,0" position="104.05187,155.92793"></sodipodi:guide>
	<sodipodi:guide  id="guide3769" orientation="0,1" position="104.05187,104.02115"></sodipodi:guide>
</sodipodi:namedview>
<path id="path2997" sodipodi:cx="-267.4122" sodipodi:cy="104.77555" sodipodi:rx="104.11848" sodipodi:ry="104.11848" sodipodi:type="arc" class="st0" d="
	M200,100c0,55.2-44.8,100-100,100C44.8,200,0,155.2,0,100c0,0,0,0,0,0C0,44.8,44.8,0,100,0C155.2,0,200,44.8,200,100
	C200,100,200,100,200,100z"/>
<path id="path10" inkscape:connector-curvature="0" class="st1" d="M65,121.8c-2.2,0-3.9-1.8-3.9-3.9c0-2.2,1.8-3.9,3.9-3.9
	s3.9,1.8,3.9,3.9C69,120,67.2,121.8,65,121.8z M79.7,153.2c-5.7,0-11.3-1.3-16.5-4.1c-6.3,4-12.1,3.7-14.5,3.4
	c-1.7-0.2-2.9-1.6-3.1-3.1c-0.2-1.7,0.6-3.2,2-3.9c2.2-1.1,3.8-3.1,4.9-5c-11.5-14-10.6-34.5,2.3-47.4c13.7-13.7,36.2-13.7,50,0
	c6.7,6.7,10.4,15.5,10.4,24.9s-3.7,18.3-10.4,24.9C98,149.6,88.9,153.2,79.7,153.2L79.7,153.2z M64.5,144.1
	c4.7,2.8,9.9,4.1,15.2,4.1c7.8,0,15.6-3,21.5-8.9c5.7-5.7,8.9-13.4,8.9-21.5c0-8.2-3.1-15.8-8.9-21.5c-11.8-11.8-31.1-11.8-42.9,0
	c-11.3,11.3-11.8,29.5-1.5,41.5l0.2,0.1c0.9,0.7,1.1,1.9,0.7,2.9c-1,2.1-2.5,4.6-4.7,6.7c2.3-0.2,5.5-1,8.6-3.5
	C62.4,143.5,63.7,143.5,64.5,144.1L64.5,144.1z M79.7,121.8c-2.2,0-3.9-1.8-3.9-3.9c0-2.2,1.8-3.9,3.9-3.9s3.9,1.8,3.9,3.9
	C83.8,120,82,121.8,79.7,121.8z M94.5,121.8c-2.2,0-3.9-1.8-3.9-3.9c0-2.2,1.8-3.9,3.9-3.9s3.9,1.8,3.9,3.9
	C98.5,120,96.7,121.8,94.5,121.8z M152.5,109.8c-2.2-1.1-3.8-3.1-4.8-5c11.5-14,10.6-34.5-2.3-47.4c-13.7-13.7-36.2-13.7-50,0
	c-5.8,5.8-9.4,13.3-10.2,21.5c1.7,0.2,3.2,0.6,4.9,1c0.6-7.2,3.7-13.7,8.8-18.9c5.9-5.9,13.7-8.8,21.5-8.8s15.5,2.9,21.5,8.8
	c11.3,11.3,11.8,29.5,1.5,41.5l-0.2,0.1c-0.9,0.7-1.1,1.9-0.7,2.9c1,2.1,2.5,4.6,4.7,6.7c-2.3-0.2-5.5-1-8.6-3.5
	c-0.9-0.7-2.1-0.7-3,0c-4.7,2.8-9.9,4.1-15.2,4.1c-0.4,0-1,0-1.5,0c0.2,1.7,0.3,3.2,0.3,4.9c0.3,0,0.8,0,1.1,0
	c5.7,0,11.3-1.3,16.5-4.1c6.3,4,12.1,3.7,14.5,3.4c1.7-0.2,2.9-1.6,3.1-3.1C154.8,112.1,153.9,110.5,152.5,109.8L152.5,109.8z"/>
</svg>
