<?xml version="1.0" encoding="utf-8"?>
<!-- Generator: Adobe Illustrator 21.0.2, SVG Export Plug-In . SVG Version: 6.00 Build 0)  -->
<svg version="1.1"
	 id="svg2" inkscape:version="0.48.5 r10040" sodipodi:docname="bg_form_mail.svg" xmlns:cc="http://creativecommons.org/ns#" xmlns:dc="http://purl.org/dc/elements/1.1/" xmlns:inkscape="http://www.inkscape.org/namespaces/inkscape" xmlns:rdf="http://www.w3.org/1999/02/22-rdf-syntax-ns#" xmlns:sodipodi="http://sodipodi.sourceforge.net/DTD/sodipodi-0.dtd" xmlns:svg="http://www.w3.org/2000/svg"
	 xmlns="http://www.w3.org/2000/svg" xmlns:xlink="http://www.w3.org/1999/xlink" x="0px" y="0px" viewBox="0 0 200 200"
	 style="enable-background:new 0 0 200 200;" xml:space="preserve">
<style type="text/css">
	.st0{fill:#0CB70C;}
	.st1{fill:#FFFFFF;}
</style>
<sodipodi:namedview  bordercolor="#666666" borderlayer="true" borderopacity="1" fit-margin-bottom="0" fit-margin-left="0" fit-margin-right="0" fit-margin-top="0" gridtolerance="10" guidetolerance="10" id="namedview16" inkscape:current-layer="svg2" inkscape:cx="51.433825" inkscape:cy="0.85406643" inkscape:guide-bbox="true" inkscape:pageopacity="0" inkscape:pageshadow="2" inkscape:showpageshadow="false" inkscape:window-height="1354" inkscape:window-maximized="1" inkscape:window-width="2560" inkscape:window-x="0" inkscape:window-y="50" inkscape:zoom="1.888" objecttolerance="10" pagecolor="#ffffff" showgrid="false" showguides="true">
	<sodipodi:guide  id="guide3767" orientation="1,0" position="104.05187,155.92793"></sodipodi:guide>
	<sodipodi:guide  id="guide3769" orientation="0,1" position="104.05187,104.02115"></sodipodi:guide>
</sodipodi:namedview>
<path id="path2997" sodipodi:cx="-267.4122" sodipodi:cy="104.77555" sodipodi:rx="104.11848" sodipodi:ry="104.11848" sodipodi:type="arc" class="st0" d="
	M200,100c0,55.2-44.8,100-100,100C44.8,200,0,155.2,0,100c0,0,0,0,0,0C0,44.8,44.8,0,100,0C155.2,0,200,44.8,200,100
	C200,100,200,100,200,100z"/>
<g id="flowRoot3871" transform="matrix(2.8654436,0,0,2.8654436,90.527461,564.52106)">
	<path id="path2993" class="st1" d="M-1.5-162.1c0,1.8,0.4,3.2,1.3,4.2c0.9,1,2.1,1.5,3.7,1.5c1.5,0,2.7-0.5,3.6-1.5
		c0.9-1,1.3-2.4,1.3-4.2c0-1.8-0.5-3.1-1.4-4.2c-0.9-1-2.1-1.6-3.6-1.6c-1.5,0-2.7,0.5-3.6,1.5C-1-165.2-1.5-163.8-1.5-162.1
		 M8.7-156.5c-0.8,1-1.6,1.7-2.6,2.1c-1,0.5-2.1,0.7-3.4,0.7c-2.2,0-3.9-0.8-5.3-2.3c-1.3-1.6-2-3.6-2-6.1c0-2.5,0.7-4.5,2-6.1
		c1.4-1.6,3.1-2.3,5.2-2.3c1.3,0,2.4,0.2,3.4,0.7c1,0.5,1.8,1.2,2.6,2.1v-2.5h2.7v13.8c1.8-0.3,3.3-1.1,4.3-2.5
		c1-1.4,1.6-3.2,1.6-5.4c0-1.3-0.2-2.6-0.6-3.8c-0.4-1.2-1-2.3-1.8-3.3c-1.3-1.6-2.9-2.9-4.8-3.8c-1.9-0.9-3.9-1.3-6.1-1.3
		c-1.5,0-3,0.2-4.4,0.6c-1.4,0.4-2.7,1-3.9,1.8c-2,1.3-3.5,3-4.6,5c-1.1,2.1-1.7,4.3-1.7,6.7c0,2,0.4,3.9,1.1,5.6
		c0.7,1.7,1.8,3.3,3.1,4.6c1.3,1.3,2.8,2.3,4.6,3c1.7,0.7,3.6,1,5.5,1c1.6,0,3.2-0.3,4.7-0.8c1.6-0.5,3-1.3,4.3-2.3l1.7,2.1
		c-1.6,1.2-3.3,2.1-5.1,2.8c-1.8,0.7-3.7,1-5.6,1c-2.3,0-4.5-0.4-6.5-1.2c-2.1-0.8-3.9-2-5.5-3.6c-1.6-1.6-2.8-3.4-3.7-5.4
		c-0.8-2.1-1.3-4.3-1.3-6.6c0-2.3,0.4-4.4,1.3-6.5c0.9-2.1,2.1-3.9,3.6-5.4c1.6-1.6,3.5-2.8,5.6-3.6c2.1-0.9,4.4-1.3,6.7-1.3
		c2.7,0,5.1,0.5,7.4,1.6c2.3,1.1,4.2,2.6,5.7,4.6c0.9,1.2,1.7,2.6,2.1,4c0.5,1.4,0.8,2.9,0.8,4.5c0,3.3-1,5.9-3,7.8
		c-2,1.9-4.7,2.9-8.2,3L8.7-156.5"/>
</g>
</svg>
