<?xml version="1.0" encoding="utf-8"?>
<!-- Generator: Adobe Illustrator 21.0.2, SVG Export Plug-In . SVG Version: 6.00 Build 0)  -->
<svg version="1.1"
	 id="svg2" inkscape:version="0.48.4 r9939" sodipodi:docname="bg_form_message.svg" xmlns:cc="http://creativecommons.org/ns#" xmlns:dc="http://purl.org/dc/elements/1.1/" xmlns:inkscape="http://www.inkscape.org/namespaces/inkscape" xmlns:rdf="http://www.w3.org/1999/02/22-rdf-syntax-ns#" xmlns:sodipodi="http://sodipodi.sourceforge.net/DTD/sodipodi-0.dtd" xmlns:svg="http://www.w3.org/2000/svg"
	 xmlns="http://www.w3.org/2000/svg" xmlns:xlink="http://www.w3.org/1999/xlink" x="0px" y="0px" viewBox="0 0 200 200"
	 style="enable-background:new 0 0 200 200;" xml:space="preserve">
<style type="text/css">
	.st0{fill:#0CB70C;}
	.st1{fill:#FFFFFF;}
</style>
<sodipodi:namedview  bordercolor="#666666" borderlayer="true" borderopacity="1" fit-margin-bottom="0" fit-margin-left="0" fit-margin-right="0" fit-margin-top="0" gridtolerance="10" guidetolerance="10" id="namedview16" inkscape:current-layer="svg2" inkscape:cx="56.657272" inkscape:cy="104.74731" inkscape:guide-bbox="true" inkscape:pageopacity="0" inkscape:pageshadow="2" inkscape:showpageshadow="false" inkscape:window-height="1000" inkscape:window-maximized="1" inkscape:window-width="1215" inkscape:window-x="65" inkscape:window-y="24" inkscape:zoom="1.3350176" objecttolerance="10" pagecolor="#ffffff" showgrid="false" showguides="true">
	<sodipodi:guide  id="guide3767" orientation="1,0" position="104.05187,155.92793"></sodipodi:guide>
	<sodipodi:guide  id="guide3769" orientation="0,1" position="104.05187,104.02115"></sodipodi:guide>
</sodipodi:namedview>
<path id="path2997" sodipodi:cx="-267.4122" sodipodi:cy="104.77555" sodipodi:rx="104.11848" sodipodi:ry="104.11848" sodipodi:type="arc" class="st0" d="
	M200,100c0,55.2-44.8,100-100,100C44.8,200,0,155.2,0,100c0,0,0,0,0,0C0,44.8,44.8,0,100,0C155.2,0,200,44.8,200,100
	C200,100,200,100,200,100z"/>
<path id="path10-1" inkscape:connector-curvature="0" class="st1" d="M150.4,138.4c-4.6-12.2-12.4-15-18.7-16.1
	c-5.2-0.9-11.8-2.9-14.1-4.2c-0.1-1.1-0.1-3.2,0.1-6.7c0.1-0.1,0.3-0.3,0.4-0.4l-0.1-0.1c3.1-4.2,4.6-8.1,5.3-10.7
	c2-1.4,4.1-4.2,5.3-9.5c0.7-3.1,1.3-7-1-9.8c-0.1-0.1-0.1-0.1-0.2-0.2c2-19.5-10.5-29.4-17.9-32l-0.1,0l-0.1,0
	c-2.8-0.8-5.4-1.3-7.9-1.3c-0.6,0-1.1,0-1.7,0.1c-0.5,0-1.1-0.1-1.7-0.1c-2.5,0-5.2,0.4-7.9,1.3l-0.1,0l-0.1,0
	c-7.4,2.6-19.9,12.4-17.9,32c-0.1,0.1-0.1,0.1-0.2,0.2c-2.2,2.8-1.7,6.7-1,9.8c1.2,5.3,3.3,8.1,5.3,9.5c0.7,2.6,2.1,6.5,5.2,10.6v0
	c0,0,0,0,0,0c0.2,0.2,0.3,0.5,0.5,0.7c0.2,3.3,0.2,5.4,0.1,6.5c-2.3,1.3-8.8,3.2-14.1,4.2c-6.3,1.1-14.1,4-18.7,16.1
	c-0.8,2.1-0.5,4.3,0.8,6.2c4.7,6.9,29.7,8.3,49.8,8.3s45.1-1.4,49.8-8.3C150.9,142.7,151.2,140.4,150.4,138.4z M80.6,96.6
	c-0.6,0-3.2-0.4-4.8-7c-1.2-5.1,0.1-5.9,1-5.9c0.4,0,0.8,0.2,0.8,0.2c-4.6-23.8,14-30.3,14-30.3c2.6-0.8,4.7-1,6.5-1
	c0.6,0,1.1,0,1.7,0.1c0.5-0.1,1.1-0.1,1.7-0.1c1.8,0,3.9,0.3,6.5,1c0,0,18.6,6.5,14,30.3c0,0,0.4-0.2,0.8-0.2c0.9,0,2.2,0.8,1,5.9
	c-1.5,6.6-4.2,7-4.8,7c-0.1,0-0.1,0-0.1,0s-0.3,6.2-6,12.9c0,0.1,0,0.1,0,0.2c-4.4,4.5-9,6.7-13.5,6.5c-5.6-0.2-10.1-4.1-12.3-6.4
	c0,0,0-0.1,0-0.1c-5.8-6.7-6.2-13-6.2-13S80.7,96.6,80.6,96.6z M86.7,120.6c0.3-0.8,0.4-2.4,0.5-4.2c3,2.3,7,4.4,11.8,4.6
	c0.3,0,0.5,0,0.8,0c4.4,0,8.6-1.6,12.7-4.7c0,1.8,0.1,3.4,0.5,4.3c0.5,1.3,3.4,2.7,6.8,3.8c-4.9,4.9-12,7.9-19.9,7.9
	c-7.9,0-14.9-3.1-19.9-7.9C83.4,123.2,86.2,121.9,86.7,120.6z"/>
</svg>
